<svg xmlns="http://www.w3.org/2000/svg" xmlns:xlink="http://www.w3.org/1999/xlink" viewBox="0 0 1200 250" role="img" aria-labelledby="title desc">
  <title id="title">Animated circuit banner</title>
  <desc id="desc">Subtle scanning glow with a moving signal along a PCB trace.</desc>

  <defs>
    <filter id="glow" x="-50%" y="-50%" width="200%" height="200%">
      <feGaussianBlur stdDeviation="2" result="b"></feGaussianBlur>
      <feMerge>
        <feMergeNode in="b"></feMergeNode>
        <feMergeNode in="SourceGraphic"></feMergeNode>
      </feMerge>
    </filter>

    <linearGradient id="scan" x1="0%" y1="0%" x2="100%" y2="0%">
      <stop offset="0%" stop-color="#0d1117" stop-opacity="1"></stop>
      <stop offset="47%" stop-color="#0d1117" stop-opacity="1"></stop>
      <stop offset="50%" stop-color="#00e5ff" stop-opacity="0.12"></stop>
      <stop offset="53%" stop-color="#0d1117" stop-opacity="1"></stop>
      <stop offset="100%" stop-color="#0d1117" stop-opacity="1"></stop>
    </linearGradient>
  </defs>

  <!-- background -->
  <rect width="1200" height="250" fill="#0d1117"></rect>

  <!-- faint grid -->
  <g stroke="#00e5ff" stroke-opacity="0.18" stroke-width="1">
    <path d="M0 50 H1200 M0 100 H1200 M0 150 H1200 M0 200 H1200"></path>
    <path d="M100 0 V250 M300 0 V250 M500 0 V250 M700 0 V250 M900 0 V250 M1100 0 V250"></path>
  </g>

  <!-- traces -->
  <g fill="none" stroke="#00e5ff" stroke-width="2" filter="url(#glow)">
    <path id="trace" d="M80,200 H360 V120 H780 V90 H1080" opacity="0.55" stroke-dasharray="6 6">
      <animate attributeName="stroke-dashoffset" from="0" to="-12" dur="1.5s" repeatCount="indefinite"></animate>
    </path>
    <path d="M260,210 H520 V130 H620 V60 H940" opacity="0.35"></path>
    <path d="M160,170 H420 V80 H560 V110 H880" opacity="0.35"></path>
  </g>

  <!-- moving signal -->
  <circle r="4" fill="#00e5ff" filter="url(#glow)">
    <animateMotion dur="3s" repeatCount="indefinite" rotate="auto">
      <mpath xlink:href="#trace" href="#trace"></mpath>
    </animateMotion>
    <animate attributeName="r" values="3;5;3" dur="1.2s" repeatCount="indefinite"></animate>
  </circle>

  <!-- scanning sweep -->
  <rect x="-1200" y="0" width="1200" height="250" fill="url(#scan)">
    <animate attributeName="x" from="-1200" to="1200" dur="4.5s" repeatCount="indefinite"></animate>
  </rect>
</svg>
